<svg width="355" height="355" viewBox="0 0 355 355" fill="none" xmlns="http://www.w3.org/2000/svg">
<mask id="path-1-inside-1_78_22" fill="white">
<path d="M10.8408 116.418C-4.97064 159.559 -3.43709 207.151 15.119 249.184C33.6751 291.218 67.8077 324.418 110.339 341.804C152.87 359.189 200.486 359.404 243.173 342.404C285.859 325.404 320.291 292.514 339.226 250.65C358.162 208.786 360.125 161.21 344.705 117.928C329.284 74.6455 297.68 39.0294 256.54 18.5693C215.399 -1.89076 167.928 -5.60045 124.108 8.22037C80.2891 22.0412 43.5364 52.3156 21.5792 92.6769L22.4314 93.1405C44.2685 52.9997 80.8204 22.8908 124.4 9.14555C167.98 -4.59973 215.192 -0.910319 256.108 19.4379C297.023 39.7862 328.454 75.2076 343.791 118.253C359.127 161.299 357.174 208.615 338.342 250.25C319.51 291.885 285.267 324.596 242.814 341.503C200.36 358.41 153.005 358.196 110.706 340.906C68.4072 323.615 34.4611 290.597 16.0065 248.793C-2.44819 206.989 -3.97337 159.657 11.7517 116.752L10.8408 116.418Z"/>
</mask>
<path d="M10.8408 116.418C-4.97064 159.559 -3.43709 207.151 15.119 249.184C33.6751 291.218 67.8077 324.418 110.339 341.804C152.87 359.189 200.486 359.404 243.173 342.404C285.859 325.404 320.291 292.514 339.226 250.65C358.162 208.786 360.125 161.21 344.705 117.928C329.284 74.6455 297.68 39.0294 256.54 18.5693C215.399 -1.89076 167.928 -5.60045 124.108 8.22037C80.2891 22.0412 43.5364 52.3156 21.5792 92.6769L22.4314 93.1405C44.2685 52.9997 80.8204 22.8908 124.4 9.14555C167.98 -4.59973 215.192 -0.910319 256.108 19.4379C297.023 39.7862 328.454 75.2076 343.791 118.253C359.127 161.299 357.174 208.615 338.342 250.25C319.51 291.885 285.267 324.596 242.814 341.503C200.36 358.41 153.005 358.196 110.706 340.906C68.4072 323.615 34.4611 290.597 16.0065 248.793C-2.44819 206.989 -3.97337 159.657 11.7517 116.752L10.8408 116.418Z" stroke="#999999" stroke-opacity="0.8" stroke-width="2" stroke-dasharray="5 5" mask="url(#path-1-inside-1_78_22)"/>
</svg>
