<svg width="372" height="372" viewBox="0 0 372 372" fill="none" xmlns="http://www.w3.org/2000/svg">
<mask id="path-1-inside-1_28_346" fill="white">
<path d="M11.36 121.993C-5.20867 167.2 -3.60168 217.071 15.843 261.117C35.2877 305.164 71.0549 339.954 115.623 358.172C160.191 376.389 210.087 376.615 254.818 358.801C299.548 340.987 335.629 306.522 355.471 262.653C375.313 218.784 377.371 168.93 361.212 123.575C345.052 78.2201 311.935 40.8984 268.825 19.4585C225.714 -1.9813 175.969 -5.86864 130.052 8.61402C84.1339 23.0967 45.6212 54.8208 22.6126 97.1149L23.5056 97.6007C46.3884 55.5377 84.6907 23.987 130.357 9.5835C176.024 -4.82001 225.497 -0.95392 268.372 20.3687C311.247 41.6914 344.183 78.8091 360.254 123.916C376.325 169.023 374.278 218.605 354.545 262.234C334.811 305.863 298.928 340.14 254.441 357.856C209.955 375.573 160.332 375.349 116.007 357.231C71.6831 339.112 36.1114 304.512 16.773 260.707C-2.56544 216.901 -4.16365 167.303 12.3144 122.343L11.36 121.993Z"/>
</mask>
<path d="M11.36 121.993C-5.20867 167.2 -3.60168 217.071 15.843 261.117C35.2877 305.164 71.0549 339.954 115.623 358.172C160.191 376.389 210.087 376.615 254.818 358.801C299.548 340.987 335.629 306.522 355.471 262.653C375.313 218.784 377.371 168.93 361.212 123.575C345.052 78.2201 311.935 40.8984 268.825 19.4585C225.714 -1.9813 175.969 -5.86864 130.052 8.61402C84.1339 23.0967 45.6212 54.8208 22.6126 97.1149L23.5056 97.6007C46.3884 55.5377 84.6907 23.987 130.357 9.5835C176.024 -4.82001 225.497 -0.95392 268.372 20.3687C311.247 41.6914 344.183 78.8091 360.254 123.916C376.325 169.023 374.278 218.605 354.545 262.234C334.811 305.863 298.928 340.14 254.441 357.856C209.955 375.573 160.332 375.349 116.007 357.231C71.6831 339.112 36.1114 304.512 16.773 260.707C-2.56544 216.901 -4.16365 167.303 12.3144 122.343L11.36 121.993Z" stroke="#999999" stroke-opacity="0.8" stroke-width="2" stroke-dasharray="5 5" mask="url(#path-1-inside-1_28_346)"/>
</svg>
