<svg width="100" height="100" viewBox="0 0 100 100" fill="none" xmlns="http://www.w3.org/2000/svg">
<mask id="path-1-inside-1_97_260" fill="white">
<path d="M3.05376 32.7939C-1.40018 44.9463 -0.968193 58.3523 4.25887 70.1928C9.48594 82.0332 19.1008 91.3855 31.0814 96.2827C43.062 101.18 56.4749 101.241 68.4993 96.4519C80.5238 91.6631 90.2228 82.3983 95.5567 70.6056C100.891 58.8129 101.444 45.4113 97.0999 33.2191C92.756 21.0269 83.8536 10.9942 72.2647 5.23079C60.6759 -0.532609 47.3036 -1.57759 34.9601 2.3156C22.6166 6.20878 12.2638 14.7368 6.07866 26.1062L6.3187 26.2367C12.47 14.9295 22.7663 6.44812 35.0423 2.57621C47.3184 -1.2957 60.6175 -0.256428 72.143 5.47547C83.6686 11.2074 92.5223 21.1852 96.8425 33.3108C101.163 45.4363 100.612 58.7647 95.3077 70.4929C90.0029 82.2212 80.3569 91.4354 68.3982 96.198C56.4395 100.961 43.1 100.9 31.1848 96.0297C19.2696 91.1593 9.70736 81.8582 4.50886 70.0824C-0.689632 58.3067 -1.11926 44.9739 3.31034 32.8879L3.05376 32.7939Z"/>
</mask>
<path d="M3.05376 32.7939C-1.40018 44.9463 -0.968193 58.3523 4.25887 70.1928C9.48594 82.0332 19.1008 91.3855 31.0814 96.2827C43.062 101.18 56.4749 101.241 68.4993 96.4519C80.5238 91.6631 90.2228 82.3983 95.5567 70.6056C100.891 58.8129 101.444 45.4113 97.0999 33.2191C92.756 21.0269 83.8536 10.9942 72.2647 5.23079C60.6759 -0.532609 47.3036 -1.57759 34.9601 2.3156C22.6166 6.20878 12.2638 14.7368 6.07866 26.1062L6.3187 26.2367C12.47 14.9295 22.7663 6.44812 35.0423 2.57621C47.3184 -1.2957 60.6175 -0.256428 72.143 5.47547C83.6686 11.2074 92.5223 21.1852 96.8425 33.3108C101.163 45.4363 100.612 58.7647 95.3077 70.4929C90.0029 82.2212 80.3569 91.4354 68.3982 96.198C56.4395 100.961 43.1 100.9 31.1848 96.0297C19.2696 91.1593 9.70736 81.8582 4.50886 70.0824C-0.689632 58.3067 -1.11926 44.9739 3.31034 32.8879L3.05376 32.7939Z" stroke="#555555" stroke-opacity="0.8" stroke-width="2" stroke-dasharray="5 5" mask="url(#path-1-inside-1_97_260)"/>
</svg>
