<svg width="97" height="18" viewBox="0 0 97 18" fill="none" xmlns="http://www.w3.org/2000/svg">
<path d="M6.188 13H0.028L0.224 12.16C1.10133 11.6 1.81067 11.1427 2.352 10.788C2.89333 10.424 3.48133 9.99933 4.116 9.514C4.76 9.02867 5.25933 8.604 5.614 8.24C5.96867 7.876 6.26733 7.484 6.51 7.064C6.75267 6.644 6.874 6.24733 6.874 5.874C6.874 5.37 6.678 4.97333 6.286 4.684C5.894 4.39467 5.376 4.25 4.732 4.25C3.74267 4.25 2.93533 4.56267 2.31 5.188L1.876 4.628C2.212 4.292 2.63667 4.026 3.15 3.83C3.66333 3.62467 4.2 3.522 4.76 3.522C5.59067 3.522 6.29533 3.72267 6.874 4.124C7.45267 4.516 7.742 5.09 7.742 5.846C7.742 6.27533 7.62067 6.72333 7.378 7.19C7.13533 7.64733 6.832 8.07667 6.468 8.478C6.11333 8.87 5.63267 9.304 5.026 9.78C4.41933 10.256 3.85933 10.6713 3.346 11.026C2.83267 11.3713 2.19333 11.7867 1.428 12.272H6.342L6.188 13ZM12.2784 13.168C11.3358 13.168 10.6078 12.846 10.0944 12.202C9.59044 11.558 9.33844 10.6853 9.33844 9.584C9.33844 8.64133 9.50177 7.71733 9.82844 6.812C10.1644 5.89733 10.6684 5.12267 11.3404 4.488C12.0218 3.844 12.7918 3.522 13.6504 3.522C14.5931 3.522 15.3118 3.844 15.8064 4.488C16.3104 5.12267 16.5624 5.99067 16.5624 7.092C16.5624 8.03467 16.3991 8.96333 16.0724 9.878C15.7458 10.7833 15.2464 11.558 14.5744 12.202C13.9024 12.846 13.1371 13.168 12.2784 13.168ZM12.3484 12.44C12.8524 12.44 13.3238 12.272 13.7624 11.936C14.2011 11.5907 14.5604 11.152 14.8404 10.62C15.1204 10.0787 15.3398 9.49533 15.4984 8.87C15.6571 8.24467 15.7364 7.63333 15.7364 7.036C15.7364 6.18667 15.5591 5.51 15.2044 5.006C14.8591 4.502 14.3131 4.25 13.5664 4.25C13.0624 4.25 12.5911 4.42267 12.1524 4.768C11.7138 5.104 11.3544 5.538 11.0744 6.07C10.7944 6.602 10.5751 7.18067 10.4164 7.806C10.2578 8.43133 10.1784 9.04267 10.1784 9.64C10.1784 10.4893 10.3511 11.1707 10.6964 11.684C11.0511 12.188 11.6018 12.44 12.3484 12.44ZM22.3191 13H21.5351L23.5931 3.662H24.4051L22.6271 11.684L30.2431 3.662H31.0551L28.9971 13H28.1851L29.9911 4.852L22.3191 13ZM38.8701 13.168C37.5541 13.168 36.5555 12.7387 35.8741 11.88C35.1928 11.012 34.9595 9.906 35.1741 8.562H33.3821L32.4021 13H31.6041L33.6481 3.662H34.4461L33.5361 7.834H35.3141C35.6501 6.574 36.3035 5.538 37.2741 4.726C38.2541 3.914 39.3741 3.508 40.6341 3.508C41.9408 3.508 42.9348 3.942 43.6161 4.81C44.2975 5.678 44.5355 6.784 44.3301 8.128C44.1155 9.556 43.4948 10.7553 42.4681 11.726C41.4508 12.6873 40.2515 13.168 38.8701 13.168ZM38.9681 12.44C40.0881 12.44 41.0681 12.034 41.9081 11.222C42.7575 10.41 43.2801 9.388 43.4761 8.156C43.6721 6.99867 43.4995 6.056 42.9581 5.328C42.4168 4.6 41.6095 4.236 40.5361 4.236C39.4068 4.236 38.4221 4.63733 37.5821 5.44C36.7421 6.24267 36.2241 7.26933 36.0281 8.52C35.8321 9.67733 36.0001 10.62 36.5321 11.348C37.0735 12.076 37.8855 12.44 38.9681 12.44ZM44.4182 13.168L44.5722 12.44C45.2162 12.44 45.7808 12.1553 46.2662 11.586C46.7515 11.0167 47.2788 9.91067 47.8482 8.268L49.4582 3.662H54.7082L52.6642 13H51.8522L53.7422 4.39H50.0182L48.6322 8.338C48.3428 9.15933 48.0582 9.864 47.7782 10.452C47.4982 11.0307 47.2275 11.4973 46.9662 11.852C46.7142 12.1973 46.4388 12.4727 46.1402 12.678C45.8508 12.874 45.5755 13.0047 45.3142 13.07C45.0528 13.1353 44.7542 13.168 44.4182 13.168ZM55.8439 13H54.7939L58.3779 9.08C57.8553 8.996 57.3839 8.75333 56.9639 8.352C56.5533 7.95067 56.3479 7.428 56.3479 6.784C56.3479 5.916 56.6559 5.17867 57.2719 4.572C57.8879 3.96533 58.7419 3.662 59.8339 3.662H63.3059L61.2339 13H60.4359L61.2899 9.136H59.3299L55.8439 13ZM59.0499 8.408H61.4439L62.3259 4.39H59.7219C58.9379 4.39 58.3219 4.61867 57.8739 5.076C57.4353 5.524 57.2159 6.07933 57.2159 6.742C57.2159 7.218 57.3933 7.61467 57.7479 7.932C58.1026 8.24933 58.5366 8.408 59.0499 8.408ZM73.5335 13H67.3735L67.5695 12.16C68.4468 11.6 69.1561 11.1427 69.6975 10.788C70.2388 10.424 70.8268 9.99933 71.4615 9.514C72.1055 9.02867 72.6048 8.604 72.9595 8.24C73.3141 7.876 73.6128 7.484 73.8555 7.064C74.0981 6.644 74.2195 6.24733 74.2195 5.874C74.2195 5.37 74.0235 4.97333 73.6315 4.684C73.2395 4.39467 72.7215 4.25 72.0775 4.25C71.0881 4.25 70.2808 4.56267 69.6555 5.188L69.2215 4.628C69.5575 4.292 69.9821 4.026 70.4955 3.83C71.0088 3.62467 71.5455 3.522 72.1055 3.522C72.9361 3.522 73.6408 3.72267 74.2195 4.124C74.7981 4.516 75.0875 5.09 75.0875 5.846C75.0875 6.27533 74.9661 6.72333 74.7235 7.19C74.4808 7.64733 74.1775 8.07667 73.8135 8.478C73.4588 8.87 72.9781 9.304 72.3715 9.78C71.7648 10.256 71.2048 10.6713 70.6915 11.026C70.1781 11.3713 69.5388 11.7867 68.7735 12.272H73.6875L73.5335 13ZM79.6239 13.168C78.6812 13.168 77.9532 12.846 77.4399 12.202C76.9359 11.558 76.6839 10.6853 76.6839 9.584C76.6839 8.64133 76.8472 7.71733 77.1739 6.812C77.5099 5.89733 78.0139 5.12267 78.6859 4.488C79.3672 3.844 80.1372 3.522 80.9959 3.522C81.9386 3.522 82.6572 3.844 83.1519 4.488C83.6559 5.12267 83.9079 5.99067 83.9079 7.092C83.9079 8.03467 83.7446 8.96333 83.4179 9.878C83.0912 10.7833 82.5919 11.558 81.9199 12.202C81.2479 12.846 80.4826 13.168 79.6239 13.168ZM79.6939 12.44C80.1979 12.44 80.6692 12.272 81.1079 11.936C81.5466 11.5907 81.9059 11.152 82.1859 10.62C82.4659 10.0787 82.6852 9.49533 82.8439 8.87C83.0026 8.24467 83.0819 7.63333 83.0819 7.036C83.0819 6.18667 82.9046 5.51 82.5499 5.006C82.2046 4.502 81.6586 4.25 80.9119 4.25C80.4079 4.25 79.9366 4.42267 79.4979 4.768C79.0592 5.104 78.6999 5.538 78.4199 6.07C78.1399 6.602 77.9206 7.18067 77.7619 7.806C77.6032 8.43133 77.5239 9.04267 77.5239 9.64C77.5239 10.4893 77.6966 11.1707 78.0419 11.684C78.3966 12.188 78.9472 12.44 79.6939 12.44ZM86.9655 13H86.1675L87.9735 4.754L86.1395 6.35L85.7615 5.832L88.2955 3.662H89.0235L86.9655 13ZM94.1141 13H93.3161L93.8761 10.452H89.4521L89.6341 9.682L95.0381 3.662H96.1721L94.8281 9.724H96.2001L96.0461 10.452H94.6741L94.1141 13ZM94.0301 9.724L95.1921 4.46L90.4321 9.724H94.0301Z" fill="#C5C5C5"/>
</svg>
