<svg width="235" height="18" viewBox="0 0 235 18" fill="none" xmlns="http://www.w3.org/2000/svg">
<path d="M3.78 9.948H0.42V9.276H3.78V9.948Z" fill="#C5C5C5"/>
<path d="M21.328 13H15.406L17.464 3.662H23.386L23.232 4.39H18.108L17.352 7.848H22.364L22.196 8.576H17.184L16.358 12.272H21.468L21.328 13ZM22.8743 13.168L23.0283 12.44C23.6723 12.44 24.237 12.1553 24.7223 11.586C25.2077 11.0167 25.735 9.91067 26.3043 8.268L27.9143 3.662H33.1643L31.1203 13H30.3083L32.1983 4.39H28.4743L27.0883 8.338C26.799 9.15933 26.5143 9.864 26.2343 10.452C25.9543 11.0307 25.6837 11.4973 25.4223 11.852C25.1703 12.1973 24.895 12.4727 24.5963 12.678C24.307 12.874 24.0317 13.0047 23.7703 13.07C23.509 13.1353 23.2103 13.168 22.8743 13.168ZM39.6341 13H33.7121L35.7701 3.662H41.6921L41.5381 4.39H36.4141L35.6581 7.848H40.6701L40.5021 8.576H35.4901L34.6641 12.272H39.7741L39.6341 13ZM49.4264 13H48.6144L49.5944 8.562H43.6724L42.6924 13H41.8944L43.9524 3.662H44.7504L43.8404 7.834H49.7484L50.6724 3.662H51.4844L49.4264 13ZM59.7042 13H58.8222L58.3882 10.704H53.4602L52.0322 13H51.0662L56.9462 3.662H57.9402L59.7042 13ZM58.3042 9.976L57.2962 4.516L53.8802 9.976H58.3042ZM69.2557 13H65.2657L67.3237 3.662H70.9217C71.5657 3.662 72.1117 3.858 72.5597 4.25C73.0077 4.642 73.2317 5.15067 73.2317 5.776C73.2317 6.42933 73.017 6.994 72.5877 7.47C72.1677 7.946 71.659 8.22133 71.0617 8.296C71.4537 8.38933 71.7757 8.62267 72.0277 8.996C72.289 9.36933 72.4197 9.78 72.4197 10.228C72.4197 10.9933 72.1444 11.6467 71.5937 12.188C71.0524 12.7293 70.273 13 69.2557 13ZM70.2637 7.848C70.9824 7.848 71.5097 7.652 71.8457 7.26C72.1817 6.868 72.3497 6.40133 72.3497 5.86C72.3497 5.44 72.191 5.09 71.8737 4.81C71.5657 4.53 71.1877 4.39 70.7397 4.39H67.9677L67.2117 7.848H70.2637ZM69.2977 12.272C70.007 12.272 70.567 12.0667 70.9777 11.656C71.3884 11.236 71.5937 10.746 71.5937 10.186C71.5937 9.71933 71.4397 9.33667 71.1317 9.038C70.8237 8.73 70.4084 8.576 69.8857 8.576H67.0437L66.2177 12.272H69.2977ZM81.8313 13H80.9493L80.5153 10.704H75.5873L74.1593 13H73.1933L79.0733 3.662H80.0673L81.8313 13ZM80.4313 9.976L79.4233 4.516L76.0073 9.976H80.4313ZM87.5382 13.168C86.3062 13.168 85.2982 12.7993 84.5142 12.062C83.7302 11.3153 83.3382 10.3353 83.3382 9.122C83.3382 8.30067 83.4828 7.53533 83.7722 6.826C84.0708 6.10733 84.4628 5.51 84.9482 5.034C85.4335 4.558 85.9842 4.18467 86.6002 3.914C87.2255 3.64333 87.8648 3.508 88.5182 3.508C89.3395 3.508 90.0675 3.68067 90.7022 4.026C91.3368 4.37133 91.8315 4.866 92.1862 5.51L91.4162 5.86C90.8188 4.77733 89.8342 4.236 88.4622 4.236C87.3422 4.236 86.3528 4.68867 85.4942 5.594C84.6355 6.49933 84.2062 7.666 84.2062 9.094C84.2062 10.102 84.5095 10.914 85.1162 11.53C85.7322 12.1367 86.5535 12.44 87.5802 12.44C88.5322 12.44 89.4095 12.0853 90.2122 11.376L90.7862 11.852C89.8715 12.7293 88.7888 13.168 87.5382 13.168ZM93.2764 13H92.4924L94.5504 3.662H95.3624L93.5844 11.684L101.2 3.662H102.012L99.9544 13H99.1424L100.948 4.852L93.2764 13ZM101.847 13.168L102.001 12.44C102.645 12.44 103.21 12.1553 103.695 11.586C104.181 11.0167 104.708 9.91067 105.277 8.268L106.887 3.662H112.137L110.093 13H109.281L111.171 4.39H107.447L106.061 8.338C105.772 9.15933 105.487 9.864 105.207 10.452C104.927 11.0307 104.657 11.4973 104.395 11.852C104.143 12.1973 103.868 12.4727 103.569 12.678C103.28 12.874 103.005 13.0047 102.743 13.07C102.482 13.1353 102.183 13.168 101.847 13.168ZM114.729 3.662H115.527L114.687 7.54H117.151C117.87 7.54 118.458 7.76867 118.915 8.226C119.382 8.68333 119.615 9.234 119.615 9.878C119.615 10.2513 119.55 10.62 119.419 10.984C119.289 11.3387 119.088 11.67 118.817 11.978C118.556 12.286 118.197 12.5333 117.739 12.72C117.282 12.9067 116.759 13 116.171 13H112.685L114.729 3.662ZM117.011 8.268H114.519L113.637 12.272H116.241C117.044 12.272 117.665 12.048 118.103 11.6C118.542 11.1427 118.761 10.5873 118.761 9.934C118.761 9.486 118.593 9.09867 118.257 8.772C117.931 8.436 117.515 8.268 117.011 8.268ZM126.885 13H120.963L123.021 3.662H128.943L128.789 4.39H123.665L122.909 7.848H127.921L127.753 8.576H122.741L121.915 12.272H127.025L126.885 13ZM133.136 13H129.146L131.204 3.662H134.802C135.446 3.662 135.992 3.858 136.44 4.25C136.888 4.642 137.112 5.15067 137.112 5.776C137.112 6.42933 136.897 6.994 136.468 7.47C136.048 7.946 135.539 8.22133 134.942 8.296C135.334 8.38933 135.656 8.62267 135.908 8.996C136.169 9.36933 136.3 9.78 136.3 10.228C136.3 10.9933 136.024 11.6467 135.474 12.188C134.932 12.7293 134.153 13 133.136 13ZM134.144 7.848C134.862 7.848 135.39 7.652 135.726 7.26C136.062 6.868 136.23 6.40133 136.23 5.86C136.23 5.44 136.071 5.09 135.754 4.81C135.446 4.53 135.068 4.39 134.62 4.39H131.848L131.092 7.848H134.144ZM133.178 12.272C133.887 12.272 134.447 12.0667 134.858 11.656C135.268 11.236 135.474 10.746 135.474 10.186C135.474 9.71933 135.32 9.33667 135.012 9.038C134.704 8.73 134.288 8.576 133.766 8.576H130.924L130.098 12.272H133.178ZM145.557 13H144.745L145.725 8.562H139.803L138.823 13H138.025L140.083 3.662H140.881L139.971 7.834H145.879L146.803 3.662H147.615L145.557 13ZM155.835 13H154.953L154.519 10.704H149.591L148.163 13H147.197L153.077 3.662H154.071L155.835 13ZM154.435 9.976L153.427 4.516L150.011 9.976H154.435ZM158.613 12.58C158.613 12.9627 158.469 13.35 158.179 13.742C157.899 14.134 157.563 14.4327 157.171 14.638L156.835 14.26C157.097 14.1293 157.325 13.952 157.521 13.728C157.727 13.5133 157.862 13.2987 157.927 13.084H157.829C157.699 13.084 157.587 13.0373 157.493 12.944C157.4 12.8413 157.353 12.72 157.353 12.58C157.353 12.3933 157.419 12.2347 157.549 12.104C157.68 11.9733 157.834 11.908 158.011 11.908C158.189 11.908 158.333 11.9687 158.445 12.09C158.557 12.202 158.613 12.3653 158.613 12.58ZM167.903 13.168C167.082 13.168 166.344 12.9907 165.691 12.636C165.047 12.272 164.618 11.8007 164.403 11.222L165.047 10.802C165.262 11.306 165.626 11.7073 166.139 12.006C166.652 12.2953 167.24 12.44 167.903 12.44C168.696 12.44 169.326 12.23 169.793 11.81C170.269 11.39 170.507 10.8533 170.507 10.2C170.507 9.70533 170.292 9.30867 169.863 9.01C169.434 8.71133 168.85 8.562 168.113 8.562H166.447L166.615 7.834H168.743C169.434 7.834 170.036 7.666 170.549 7.33C171.072 6.994 171.333 6.52267 171.333 5.916C171.333 5.44 171.114 5.04333 170.675 4.726C170.236 4.40867 169.653 4.25 168.925 4.25C167.926 4.25 167.082 4.57667 166.391 5.23L165.999 4.67C166.354 4.31533 166.792 4.03533 167.315 3.83C167.847 3.62467 168.398 3.522 168.967 3.522C169.91 3.522 170.675 3.72733 171.263 4.138C171.851 4.54867 172.145 5.118 172.145 5.846C172.145 6.53667 171.865 7.10133 171.305 7.54C170.745 7.97867 170.134 8.21667 169.471 8.254C169.975 8.338 170.404 8.562 170.759 8.926C171.123 9.28067 171.305 9.71933 171.305 10.242C171.305 11.054 170.988 11.7447 170.353 12.314C169.728 12.8833 168.911 13.168 167.903 13.168ZM180.73 13H179.848L179.414 10.704H174.486L173.058 13H172.092L177.972 3.662H178.966L180.73 13ZM179.33 9.976L178.322 4.516L174.906 9.976H179.33ZM186.437 13.168C185.233 13.168 184.23 12.8087 183.427 12.09C182.634 11.3713 182.237 10.382 182.237 9.122C182.237 7.54467 182.741 6.21467 183.749 5.132C184.757 4.04933 185.98 3.508 187.417 3.508C188.621 3.508 189.62 3.86733 190.413 4.586C191.207 5.30467 191.603 6.294 191.603 7.554C191.603 9.13133 191.099 10.4613 190.091 11.544C189.083 12.6267 187.865 13.168 186.437 13.168ZM186.479 12.44C187.637 12.44 188.635 11.978 189.475 11.054C190.315 10.1207 190.735 8.96333 190.735 7.582C190.735 6.52733 190.413 5.706 189.769 5.118C189.125 4.53 188.318 4.236 187.347 4.236C186.19 4.236 185.191 4.698 184.351 5.622C183.521 6.546 183.105 7.70333 183.105 9.094C183.105 10.1487 183.423 10.97 184.057 11.558C184.701 12.146 185.509 12.44 186.479 12.44ZM198.232 7.022H197.826C198.04 5.23 198.157 4.26867 198.176 4.138C198.194 3.95133 198.255 3.802 198.358 3.69C198.46 3.578 198.596 3.522 198.764 3.522C198.885 3.522 198.988 3.56867 199.072 3.662C199.165 3.746 199.212 3.85333 199.212 3.984L199.142 4.264L198.232 7.022ZM200.066 7.022H199.66C199.874 5.23 199.991 4.26867 200.01 4.138C200.028 3.95133 200.089 3.802 200.192 3.69C200.294 3.578 200.43 3.522 200.598 3.522C200.728 3.522 200.836 3.56867 200.92 3.662C201.004 3.746 201.046 3.85333 201.046 3.984C201.046 4.07733 201.022 4.17067 200.976 4.264L200.066 7.022ZM208.835 13H208.023L209.913 4.39H204.005L202.101 13H201.303L203.361 3.662H210.893L208.835 13ZM214.619 13H213.807L215.711 4.39H212.659L212.813 3.662H219.729L219.575 4.39H216.523L214.619 13ZM220.393 13H219.609L221.667 3.662H222.479L220.701 11.684L228.317 3.662H229.129L227.071 13H226.259L228.065 4.852L220.393 13ZM231.33 7.022H230.924C231.139 5.23 231.256 4.26867 231.274 4.138C231.293 3.95133 231.354 3.802 231.456 3.69C231.559 3.578 231.694 3.522 231.862 3.522C231.984 3.522 232.086 3.56867 232.17 3.662C232.264 3.746 232.31 3.85333 232.31 3.984L232.24 4.264L231.33 7.022ZM233.164 7.022H232.758C232.973 5.23 233.09 4.26867 233.108 4.138C233.127 3.95133 233.188 3.802 233.29 3.69C233.393 3.578 233.528 3.522 233.696 3.522C233.827 3.522 233.934 3.56867 234.018 3.662C234.102 3.746 234.144 3.85333 234.144 3.984C234.144 4.07733 234.121 4.17067 234.074 4.264L233.164 7.022Z" fill="#C5C5C5"/>
</svg>
