<svg width="458" height="56" viewBox="0 0 458 56" fill="none" xmlns="http://www.w3.org/2000/svg">
<path d="M7.56 30.896H0.84V29.552H7.56V30.896Z" fill="#C5C5C5"/>
<path d="M31.656 37H19.812L23.928 18.324H35.772L35.464 19.78H25.216L23.704 26.696H33.728L33.392 28.152H23.368L21.716 35.544H31.936L31.656 37ZM34.7487 37.336L35.0567 35.88C36.3447 35.88 37.474 35.3107 38.4447 34.172C39.4154 33.0333 40.47 30.8213 41.6087 27.536L44.8287 18.324H55.3287L51.2407 37H49.6167L53.3967 19.78H45.9487L43.1767 27.676C42.598 29.3187 42.0287 30.728 41.4687 31.904C40.9087 33.0613 40.3674 33.9947 39.8447 34.704C39.3407 35.3947 38.79 35.9453 38.1927 36.356C37.614 36.748 37.0634 37.0093 36.5407 37.14C36.018 37.2707 35.4207 37.336 34.7487 37.336ZM68.2682 37H56.4242L60.5402 18.324H72.3842L72.0762 19.78H61.8282L60.3162 26.696H70.3402L70.0042 28.152H59.9802L58.3282 35.544H68.5482L68.2682 37ZM87.8529 37H86.2289L88.1889 28.124H76.3449L74.3849 37H72.7889L76.9049 18.324H78.5009L76.6809 26.668H88.4969L90.3449 18.324H91.9689L87.8529 37ZM108.408 37H106.644L105.776 32.408H95.9204L93.0644 37H91.1324L102.892 18.324H104.88L108.408 37ZM105.608 30.952L103.592 20.032L96.7604 30.952H105.608ZM127.511 37H119.531L123.647 18.324H130.843C132.131 18.324 133.223 18.716 134.119 19.5C135.015 20.284 135.463 21.3013 135.463 22.552C135.463 23.8587 135.034 24.988 134.175 25.94C133.335 26.892 132.318 27.4427 131.123 27.592C131.907 27.7787 132.551 28.2453 133.055 28.992C133.578 29.7387 133.839 30.56 133.839 31.456C133.839 32.9867 133.289 34.2933 132.187 35.376C131.105 36.4587 129.546 37 127.511 37ZM129.527 26.696C130.965 26.696 132.019 26.304 132.691 25.52C133.363 24.736 133.699 23.8027 133.699 22.72C133.699 21.88 133.382 21.18 132.747 20.62C132.131 20.06 131.375 19.78 130.479 19.78H124.935L123.423 26.696H129.527ZM127.595 35.544C129.014 35.544 130.134 35.1333 130.955 34.312C131.777 33.472 132.187 32.492 132.187 31.372C132.187 30.4387 131.879 29.6733 131.263 29.076C130.647 28.46 129.817 28.152 128.771 28.152H123.087L121.435 35.544H127.595ZM152.663 37H150.899L150.031 32.408H140.175L137.319 37H135.387L147.147 18.324H149.135L152.663 37ZM149.863 30.952L147.847 20.032L141.015 30.952H149.863ZM164.076 37.336C161.612 37.336 159.596 36.5987 158.028 35.124C156.46 33.6307 155.676 31.6707 155.676 29.244C155.676 27.6013 155.966 26.0707 156.544 24.652C157.142 23.2147 157.926 22.02 158.896 21.068C159.867 20.116 160.968 19.3693 162.2 18.828C163.451 18.2867 164.73 18.016 166.036 18.016C167.679 18.016 169.135 18.3613 170.404 19.052C171.674 19.7427 172.663 20.732 173.372 22.02L171.832 22.72C170.638 20.5547 168.668 19.472 165.924 19.472C163.684 19.472 161.706 20.3773 159.988 22.188C158.271 23.9987 157.412 26.332 157.412 29.188C157.412 31.204 158.019 32.828 159.232 34.06C160.464 35.2733 162.107 35.88 164.16 35.88C166.064 35.88 167.819 35.1707 169.424 33.752L170.572 34.704C168.743 36.4587 166.578 37.336 164.076 37.336ZM175.553 37H173.985L178.101 18.324H179.725L176.169 34.368L191.401 18.324H193.025L188.909 37H187.285L190.897 20.704L175.553 37ZM192.695 37.336L193.003 35.88C194.291 35.88 195.42 35.3107 196.391 34.172C197.362 33.0333 198.416 30.8213 199.555 27.536L202.775 18.324H213.275L209.187 37H207.563L211.343 19.78H203.895L201.123 27.676C200.544 29.3187 199.975 30.728 199.415 31.904C198.855 33.0613 198.314 33.9947 197.791 34.704C197.287 35.3947 196.736 35.9453 196.139 36.356C195.56 36.748 195.01 37.0093 194.487 37.14C193.964 37.2707 193.367 37.336 192.695 37.336ZM218.458 18.324H220.054L218.374 26.08H223.302C224.74 26.08 225.916 26.5373 226.83 27.452C227.764 28.3667 228.23 29.468 228.23 30.756C228.23 31.5027 228.1 32.24 227.838 32.968C227.577 33.6773 227.176 34.34 226.634 34.956C226.112 35.572 225.393 36.0667 224.478 36.44C223.564 36.8133 222.518 37 221.342 37H214.37L218.458 18.324ZM223.022 27.536H218.038L216.274 35.544H221.482C223.088 35.544 224.329 35.096 225.206 34.2C226.084 33.2853 226.522 32.1747 226.522 30.868C226.522 29.972 226.186 29.1973 225.514 28.544C224.861 27.872 224.03 27.536 223.022 27.536ZM242.771 37H230.927L235.043 18.324H246.887L246.579 19.78H236.331L234.819 26.696H244.843L244.507 28.152H234.483L232.831 35.544H243.051L242.771 37ZM255.271 37H247.291L251.407 18.324H258.603C259.891 18.324 260.983 18.716 261.879 19.5C262.775 20.284 263.223 21.3013 263.223 22.552C263.223 23.8587 262.794 24.988 261.935 25.94C261.095 26.892 260.078 27.4427 258.883 27.592C259.667 27.7787 260.311 28.2453 260.815 28.992C261.338 29.7387 261.599 30.56 261.599 31.456C261.599 32.9867 261.049 34.2933 259.947 35.376C258.865 36.4587 257.306 37 255.271 37ZM257.287 26.696C258.725 26.696 259.779 26.304 260.451 25.52C261.123 24.736 261.459 23.8027 261.459 22.72C261.459 21.88 261.142 21.18 260.507 20.62C259.891 20.06 259.135 19.78 258.239 19.78H252.695L251.183 26.696H257.287ZM255.355 35.544C256.774 35.544 257.894 35.1333 258.715 34.312C259.537 33.472 259.947 32.492 259.947 31.372C259.947 30.4387 259.639 29.6733 259.023 29.076C258.407 28.46 257.577 28.152 256.531 28.152H250.847L249.195 35.544H255.355ZM280.114 37H278.49L280.45 28.124H268.606L266.646 37H265.05L269.166 18.324H270.762L268.942 26.668H280.758L282.606 18.324H284.23L280.114 37ZM300.67 37H298.906L298.038 32.408H288.182L285.326 37H283.394L295.154 18.324H297.142L300.67 37ZM297.87 30.952L295.854 20.032L289.022 30.952H297.87ZM306.227 36.16C306.227 36.9253 305.938 37.7 305.359 38.484C304.799 39.268 304.127 39.8653 303.343 40.276L302.671 39.52C303.194 39.2587 303.651 38.904 304.043 38.456C304.454 38.0267 304.724 37.5973 304.855 37.168H304.659C304.398 37.168 304.174 37.0747 303.987 36.888C303.8 36.6827 303.707 36.44 303.707 36.16C303.707 35.7867 303.838 35.4693 304.099 35.208C304.36 34.9467 304.668 34.816 305.023 34.816C305.378 34.816 305.667 34.9373 305.891 35.18C306.115 35.404 306.227 35.7307 306.227 36.16ZM324.806 37.336C323.163 37.336 321.689 36.9813 320.382 36.272C319.094 35.544 318.235 34.6013 317.806 33.444L319.094 32.604C319.523 33.612 320.251 34.4147 321.278 35.012C322.305 35.5907 323.481 35.88 324.806 35.88C326.393 35.88 327.653 35.46 328.586 34.62C329.538 33.78 330.014 32.7067 330.014 31.4C330.014 30.4107 329.585 29.6173 328.726 29.02C327.867 28.4227 326.701 28.124 325.226 28.124H321.894L322.23 26.668H326.486C327.867 26.668 329.071 26.332 330.098 25.66C331.143 24.988 331.666 24.0453 331.666 22.832C331.666 21.88 331.227 21.0867 330.35 20.452C329.473 19.8173 328.306 19.5 326.85 19.5C324.853 19.5 323.163 20.1533 321.782 21.46L320.998 20.34C321.707 19.6307 322.585 19.0707 323.63 18.66C324.694 18.2493 325.795 18.044 326.934 18.044C328.819 18.044 330.35 18.4547 331.526 19.276C332.702 20.0973 333.29 21.236 333.29 22.692C333.29 24.0733 332.73 25.2027 331.61 26.08C330.49 26.9573 329.267 27.4333 327.942 27.508C328.95 27.676 329.809 28.124 330.518 28.852C331.246 29.5613 331.61 30.4387 331.61 31.484C331.61 33.108 330.975 34.4893 329.706 35.628C328.455 36.7667 326.822 37.336 324.806 37.336ZM350.461 37H348.697L347.829 32.408H337.973L335.117 37H333.185L344.945 18.324H346.933L350.461 37ZM347.661 30.952L345.645 20.032L338.813 30.952H347.661ZM361.874 37.336C359.466 37.336 357.46 36.6173 355.854 35.18C354.268 33.7427 353.474 31.764 353.474 29.244C353.474 26.0893 354.482 23.4293 356.498 21.264C358.514 19.0987 360.96 18.016 363.834 18.016C366.242 18.016 368.24 18.7347 369.826 20.172C371.413 21.6093 372.206 23.588 372.206 26.108C372.206 29.2627 371.198 31.9227 369.182 34.088C367.166 36.2533 364.73 37.336 361.874 37.336ZM361.958 35.88C364.273 35.88 366.27 34.956 367.95 33.108C369.63 31.2413 370.47 28.9267 370.47 26.164C370.47 24.0547 369.826 22.412 368.538 21.236C367.25 20.06 365.636 19.472 363.694 19.472C361.38 19.472 359.382 20.396 357.702 22.244C356.041 24.092 355.21 26.4067 355.21 29.188C355.21 31.2973 355.845 32.94 357.114 34.116C358.402 35.292 360.017 35.88 361.958 35.88ZM385.463 25.044H384.651C385.081 21.46 385.314 19.5373 385.351 19.276C385.389 18.9027 385.51 18.604 385.715 18.38C385.921 18.156 386.191 18.044 386.527 18.044C386.77 18.044 386.975 18.1373 387.143 18.324C387.33 18.492 387.423 18.7067 387.423 18.968L387.283 19.528L385.463 25.044ZM389.131 25.044H388.319C388.749 21.46 388.982 19.5373 389.019 19.276C389.057 18.9027 389.178 18.604 389.383 18.38C389.589 18.156 389.859 18.044 390.195 18.044C390.457 18.044 390.671 18.1373 390.839 18.324C391.007 18.492 391.091 18.7067 391.091 18.968C391.091 19.1547 391.045 19.3413 390.951 19.528L389.131 25.044ZM406.67 37H405.046L408.826 19.78H397.01L393.202 37H391.606L395.722 18.324H410.786L406.67 37ZM418.238 37H416.614L420.422 19.78H414.318L414.626 18.324H428.458L428.15 19.78H422.046L418.238 37ZM429.786 37H428.218L432.334 18.324H433.958L430.402 34.368L445.634 18.324H447.258L443.142 37H441.518L445.13 20.704L429.786 37ZM451.66 25.044H450.848C451.278 21.46 451.511 19.5373 451.548 19.276C451.586 18.9027 451.707 18.604 451.912 18.38C452.118 18.156 452.388 18.044 452.724 18.044C452.967 18.044 453.172 18.1373 453.34 18.324C453.527 18.492 453.62 18.7067 453.62 18.968L453.48 19.528L451.66 25.044ZM455.328 25.044H454.516C454.946 21.46 455.179 19.5373 455.216 19.276C455.254 18.9027 455.375 18.604 455.58 18.38C455.786 18.156 456.056 18.044 456.392 18.044C456.654 18.044 456.868 18.1373 457.036 18.324C457.204 18.492 457.288 18.7067 457.288 18.968C457.288 19.1547 457.242 19.3413 457.148 19.528L455.328 25.044Z" fill="#C5C5C5"/>
</svg>
