<svg width="194" height="56" viewBox="0 0 194 56" fill="none" xmlns="http://www.w3.org/2000/svg">
<path d="M12.376 37H0.056L0.448 35.32C2.20267 34.2 3.62133 33.2853 4.704 32.576C5.78667 31.848 6.96267 30.9987 8.232 30.028C9.52 29.0573 10.5187 28.208 11.228 27.48C11.9373 26.752 12.5347 25.968 13.02 25.128C13.5053 24.288 13.748 23.4947 13.748 22.748C13.748 21.74 13.356 20.9467 12.572 20.368C11.788 19.7893 10.752 19.5 9.464 19.5C7.48533 19.5 5.87067 20.1253 4.62 21.376L3.752 20.256C4.424 19.584 5.27333 19.052 6.3 18.66C7.32667 18.2493 8.4 18.044 9.52 18.044C11.1813 18.044 12.5907 18.4453 13.748 19.248C14.9053 20.032 15.484 21.18 15.484 22.692C15.484 23.5507 15.2413 24.4467 14.756 25.38C14.2707 26.2947 13.664 27.1533 12.936 27.956C12.2267 28.74 11.2653 29.608 10.052 30.56C8.83867 31.512 7.71867 32.3427 6.692 33.052C5.66533 33.7427 4.38667 34.5733 2.856 35.544H12.684L12.376 37ZM24.5569 37.336C22.6715 37.336 21.2155 36.692 20.1889 35.404C19.1809 34.116 18.6769 32.3707 18.6769 30.168C18.6769 28.2827 19.0035 26.4347 19.6569 24.624C20.3289 22.7947 21.3369 21.2453 22.6809 19.976C24.0435 18.688 25.5835 18.044 27.3009 18.044C29.1862 18.044 30.6235 18.688 31.6129 19.976C32.6209 21.2453 33.1249 22.9813 33.1249 25.184C33.1249 27.0693 32.7982 28.9267 32.1449 30.756C31.4915 32.5667 30.4929 34.116 29.1489 35.404C27.8049 36.692 26.2742 37.336 24.5569 37.336ZM24.6969 35.88C25.7049 35.88 26.6475 35.544 27.5249 34.872C28.4022 34.1813 29.1209 33.304 29.6809 32.24C30.2409 31.1573 30.6795 29.9907 30.9969 28.74C31.3142 27.4893 31.4729 26.2667 31.4729 25.072C31.4729 23.3733 31.1182 22.02 30.4089 21.012C29.7182 20.004 28.6262 19.5 27.1329 19.5C26.1249 19.5 25.1822 19.8453 24.3049 20.536C23.4275 21.208 22.7089 22.076 22.1489 23.14C21.5889 24.204 21.1502 25.3613 20.8329 26.612C20.5155 27.8627 20.3569 29.0853 20.3569 30.28C20.3569 31.9787 20.7022 33.3413 21.3929 34.368C22.1022 35.376 23.2035 35.88 24.6969 35.88ZM44.6381 37H43.0701L47.1861 18.324H48.8101L45.2541 34.368L60.4861 18.324H62.1101L57.9941 37H56.3701L59.9821 20.704L44.6381 37ZM77.7403 37.336C75.1083 37.336 73.1109 36.4773 71.7483 34.76C70.3856 33.024 69.9189 30.812 70.3483 28.124H66.7643L64.8043 37H63.2083L67.2963 18.324H68.8923L67.0723 26.668H70.6283C71.3003 24.148 72.6069 22.076 74.5483 20.452C76.5083 18.828 78.7483 18.016 81.2683 18.016C83.8816 18.016 85.8696 18.884 87.2323 20.62C88.5949 22.356 89.0709 24.568 88.6603 27.256C88.2309 30.112 86.9896 32.5107 84.9363 34.452C82.9016 36.3747 80.5029 37.336 77.7403 37.336ZM77.9363 35.88C80.1763 35.88 82.1363 35.068 83.8163 33.444C85.5149 31.82 86.5603 29.776 86.9523 27.312C87.3443 24.9973 86.9989 23.112 85.9163 21.656C84.8336 20.2 83.2189 19.472 81.0723 19.472C78.8136 19.472 76.8443 20.2747 75.1643 21.88C73.4843 23.4853 72.4483 25.5387 72.0563 28.04C71.6643 30.3547 72.0003 32.24 73.0643 33.696C74.1469 35.152 75.7709 35.88 77.9363 35.88ZM88.8363 37.336L89.1443 35.88C90.4323 35.88 91.5617 35.3107 92.5323 34.172C93.503 33.0333 94.5577 30.8213 95.6963 27.536L98.9163 18.324H109.416L105.328 37H103.704L107.484 19.78H100.036L97.2643 27.676C96.6857 29.3187 96.1163 30.728 95.5563 31.904C94.9963 33.0613 94.455 33.9947 93.9323 34.704C93.4283 35.3947 92.8777 35.9453 92.2803 36.356C91.7017 36.748 91.151 37.0093 90.6283 37.14C90.1057 37.2707 89.5083 37.336 88.8363 37.336ZM111.688 37H109.588L116.756 29.16C115.711 28.992 114.768 28.5067 113.928 27.704C113.107 26.9013 112.696 25.856 112.696 24.568C112.696 22.832 113.312 21.3573 114.544 20.144C115.776 18.9307 117.484 18.324 119.668 18.324H126.612L122.468 37H120.872L122.58 29.272H118.66L111.688 37ZM118.1 27.816H122.888L124.652 19.78H119.444C117.876 19.78 116.644 20.2373 115.748 21.152C114.871 22.048 114.432 23.1587 114.432 24.484C114.432 25.436 114.787 26.2293 115.496 26.864C116.205 27.4987 117.073 27.816 118.1 27.816ZM147.067 37H134.747L135.139 35.32C136.894 34.2 138.312 33.2853 139.395 32.576C140.478 31.848 141.654 30.9987 142.923 30.028C144.211 29.0573 145.21 28.208 145.919 27.48C146.628 26.752 147.226 25.968 147.711 25.128C148.196 24.288 148.439 23.4947 148.439 22.748C148.439 21.74 148.047 20.9467 147.263 20.368C146.479 19.7893 145.443 19.5 144.155 19.5C142.176 19.5 140.562 20.1253 139.311 21.376L138.443 20.256C139.115 19.584 139.964 19.052 140.991 18.66C142.018 18.2493 143.091 18.044 144.211 18.044C145.872 18.044 147.282 18.4453 148.439 19.248C149.596 20.032 150.175 21.18 150.175 22.692C150.175 23.5507 149.932 24.4467 149.447 25.38C148.962 26.2947 148.355 27.1533 147.627 27.956C146.918 28.74 145.956 29.608 144.743 30.56C143.53 31.512 142.41 32.3427 141.383 33.052C140.356 33.7427 139.078 34.5733 137.547 35.544H147.375L147.067 37ZM159.248 37.336C157.362 37.336 155.906 36.692 154.88 35.404C153.872 34.116 153.368 32.3707 153.368 30.168C153.368 28.2827 153.694 26.4347 154.348 24.624C155.02 22.7947 156.028 21.2453 157.372 19.976C158.734 18.688 160.274 18.044 161.992 18.044C163.877 18.044 165.314 18.688 166.304 19.976C167.312 21.2453 167.816 22.9813 167.816 25.184C167.816 27.0693 167.489 28.9267 166.836 30.756C166.182 32.5667 165.184 34.116 163.84 35.404C162.496 36.692 160.965 37.336 159.248 37.336ZM159.388 35.88C160.396 35.88 161.338 35.544 162.216 34.872C163.093 34.1813 163.812 33.304 164.372 32.24C164.932 31.1573 165.37 29.9907 165.688 28.74C166.005 27.4893 166.164 26.2667 166.164 25.072C166.164 23.3733 165.809 22.02 165.1 21.012C164.409 20.004 163.317 19.5 161.824 19.5C160.816 19.5 159.873 19.8453 158.996 20.536C158.118 21.208 157.4 22.076 156.84 23.14C156.28 24.204 155.841 25.3613 155.524 26.612C155.206 27.8627 155.048 29.0853 155.048 30.28C155.048 31.9787 155.393 33.3413 156.084 34.368C156.793 35.376 157.894 35.88 159.388 35.88ZM173.931 37H172.335L175.947 20.508L172.279 23.7L171.523 22.664L176.591 18.324H178.047L173.931 37ZM188.228 37H186.632L187.752 31.904H178.904L179.268 30.364L190.076 18.324H192.344L189.656 30.448H192.4L192.092 31.904H189.348L188.228 37ZM188.06 30.448L190.384 19.92L180.864 30.448H188.06Z" fill="#C5C5C5"/>
</svg>
