<svg width="375" height="80" viewBox="0 0 375 80" fill="none" xmlns="http://www.w3.org/2000/svg">
<rect width="375" height="80" fill="#897163"/>
<path d="M277.354 40.3536C277.549 40.1583 277.549 39.8417 277.354 39.6464L274.172 36.4645C273.976 36.2692 273.66 36.2692 273.464 36.4645C273.269 36.6597 273.269 36.9763 273.464 37.1716L276.293 40L273.464 42.8284C273.269 43.0237 273.269 43.3403 273.464 43.5355C273.66 43.7308 273.976 43.7308 274.172 43.5355L277.354 40.3536ZM227 40.5H277V39.5H227V40.5Z" fill="#FCFCFC"/>
<path d="M-93.544 47.288C-95.88 47.288 -97.84 46.52 -99.424 44.984C-100.992 43.432 -101.776 41.44 -101.776 39.008C-101.776 36.576 -100.992 34.592 -99.424 33.056C-97.84 31.504 -95.88 30.728 -93.544 30.728C-90.984 30.728 -88.96 31.784 -87.472 33.896L-89.152 34.832C-89.616 34.144 -90.24 33.584 -91.024 33.152C-91.808 32.72 -92.648 32.504 -93.544 32.504C-95.304 32.504 -96.776 33.12 -97.96 34.352C-99.128 35.568 -99.712 37.12 -99.712 39.008C-99.712 40.896 -99.128 42.456 -97.96 43.688C-96.776 44.904 -95.304 45.512 -93.544 45.512C-92.648 45.512 -91.808 45.304 -91.024 44.888C-90.24 44.456 -89.616 43.888 -89.152 43.184L-87.448 44.12C-89 46.232 -91.032 47.288 -93.544 47.288ZM-68.7573 47H-70.7493V33.824L-76.1972 47H-77.0132L-82.4373 33.824V47H-84.4293V30.992H-81.5733L-76.6053 43.04L-71.6132 30.992H-68.7573V47ZM-57.247 47.288C-59.599 47.288 -61.511 46.504 -62.983 44.936C-64.455 43.368 -65.191 41.392 -65.191 39.008C-65.191 36.624 -64.455 34.648 -62.983 33.08C-61.511 31.512 -59.599 30.728 -57.247 30.728C-54.911 30.728 -53.007 31.512 -51.535 33.08C-50.047 34.648 -49.303 36.624 -49.303 39.008C-49.303 41.392 -50.047 43.368 -51.535 44.936C-53.007 46.504 -54.911 47.288 -57.247 47.288ZM-57.247 45.512C-55.487 45.512 -54.071 44.904 -52.999 43.688C-51.911 42.456 -51.367 40.896 -51.367 39.008C-51.367 37.104 -51.911 35.544 -52.999 34.328C-54.071 33.112 -55.487 32.504 -57.247 32.504C-59.023 32.504 -60.447 33.112 -61.519 34.328C-62.591 35.544 -63.127 37.104 -63.127 39.008C-63.127 40.896 -62.591 42.456 -61.519 43.688C-60.447 44.904 -59.023 45.512 -57.247 45.512ZM-40.4157 47H-42.4077V32.768H-47.4717V30.992H-35.3277V32.768H-40.4157V47ZM-30.2082 47H-32.2002V30.992H-25.7682C-24.2162 30.992 -22.9922 31.456 -22.0962 32.384C-21.2002 33.312 -20.7522 34.456 -20.7522 35.816C-20.7522 37.176 -21.2082 38.32 -22.1202 39.248C-23.0162 40.176 -24.2322 40.64 -25.7682 40.64H-30.2082V47ZM-26.0082 38.864C-25.0642 38.864 -24.2962 38.584 -23.7042 38.024C-23.1122 37.448 -22.8162 36.712 -22.8162 35.816C-22.8162 34.92 -23.1122 34.192 -23.7042 33.632C-24.2962 33.056 -25.0642 32.768 -26.0082 32.768H-30.2082V38.864H-26.0082ZM-7.14625 47H-17.6342V30.992H-7.14625V32.768H-15.6422V37.928H-7.31425V39.704H-15.6422V45.224H-7.14625V47ZM2.46181 47H0.46981V32.768H-4.59419V30.992H7.54981V32.768H2.46181V47ZM10.6773 30.992H12.6693V37.352H17.1093C18.6453 37.352 19.8613 37.816 20.7573 38.744C21.6693 39.672 22.1253 40.816 22.1253 42.176C22.1253 43.536 21.6773 44.68 20.7813 45.608C19.8853 46.536 18.6613 47 17.1093 47H10.6773V30.992ZM16.8693 39.128H12.6693V45.224H16.8693C17.8133 45.224 18.5813 44.944 19.1733 44.384C19.7653 43.808 20.0613 43.072 20.0613 42.176C20.0613 41.28 19.7653 40.552 19.1733 39.992C18.5813 39.416 17.8133 39.128 16.8693 39.128ZM39.2068 47H31.9108V30.992H39.0388C40.4148 30.992 41.5028 31.368 42.3028 32.12C43.1188 32.872 43.5268 33.856 43.5268 35.072C43.5268 36.032 43.2548 36.848 42.7108 37.52C42.1668 38.176 41.5028 38.584 40.7188 38.744C41.5668 38.872 42.2948 39.32 42.9028 40.088C43.5268 40.856 43.8388 41.72 43.8388 42.68C43.8388 43.976 43.4228 45.024 42.5908 45.824C41.7748 46.608 40.6468 47 39.2068 47ZM38.7028 37.928C39.5828 37.928 40.2628 37.688 40.7428 37.208C41.2228 36.728 41.4628 36.112 41.4628 35.36C41.4628 34.608 41.2148 33.992 40.7188 33.512C40.2388 33.016 39.5668 32.768 38.7028 32.768H33.9028V37.928H38.7028ZM38.7988 45.224C39.7268 45.224 40.4548 44.976 40.9828 44.48C41.5108 43.984 41.7748 43.312 41.7748 42.464C41.7748 41.68 41.5108 41.024 40.9828 40.496C40.4708 39.968 39.7428 39.704 38.7988 39.704H33.9028V45.224H38.7988ZM55.0685 47.288C52.7325 47.288 50.7725 46.52 49.1885 44.984C47.6205 43.432 46.8365 41.44 46.8365 39.008C46.8365 36.576 47.6205 34.592 49.1885 33.056C50.7725 31.504 52.7325 30.728 55.0685 30.728C57.6285 30.728 59.6525 31.784 61.1405 33.896L59.4605 34.832C58.9965 34.144 58.3725 33.584 57.5885 33.152C56.8045 32.72 55.9645 32.504 55.0685 32.504C53.3085 32.504 51.8365 33.12 50.6525 34.352C49.4845 35.568 48.9005 37.12 48.9005 39.008C48.9005 40.896 49.4845 42.456 50.6525 43.688C51.8365 44.904 53.3085 45.512 55.0685 45.512C55.9645 45.512 56.8045 45.304 57.5885 44.888C58.3725 44.456 58.9965 43.888 59.4605 43.184L61.1645 44.12C59.6125 46.232 57.5805 47.288 55.0685 47.288ZM74.6712 47H64.1832V30.992H74.6712V32.768H66.1752V37.928H74.5032V39.704H66.1752V45.224H74.6712V47ZM98.3388 47H96.3468V32.768H86.9868V47H84.9948V30.992H98.3388V47ZM104.553 47H102.561V30.992H108.993C110.545 30.992 111.769 31.456 112.665 32.384C113.561 33.312 114.009 34.456 114.009 35.816C114.009 37.176 113.553 38.32 112.641 39.248C111.745 40.176 110.529 40.64 108.993 40.64H104.553V47ZM108.753 38.864C109.697 38.864 110.465 38.584 111.057 38.024C111.649 37.448 111.945 36.712 111.945 35.816C111.945 34.92 111.649 34.192 111.057 33.632C110.465 33.056 109.697 32.768 108.753 32.768H104.553V38.864H108.753ZM124.423 47.288C122.071 47.288 120.159 46.504 118.687 44.936C117.215 43.368 116.479 41.392 116.479 39.008C116.479 36.624 117.215 34.648 118.687 33.08C120.159 31.512 122.071 30.728 124.423 30.728C126.759 30.728 128.663 31.512 130.135 33.08C131.623 34.648 132.367 36.624 132.367 39.008C132.367 41.392 131.623 43.368 130.135 44.936C128.663 46.504 126.759 47.288 124.423 47.288ZM124.423 45.512C126.183 45.512 127.599 44.904 128.671 43.688C129.759 42.456 130.303 40.896 130.303 39.008C130.303 37.104 129.759 35.544 128.671 34.328C127.599 33.112 126.183 32.504 124.423 32.504C122.647 32.504 121.223 33.112 120.151 34.328C119.079 35.544 118.543 37.104 118.543 39.008C118.543 40.896 119.079 42.456 120.151 43.688C121.223 44.904 122.647 45.512 124.423 45.512ZM146.446 47H135.958V30.992H146.446V32.768H137.95V37.928H146.278V39.704H137.95V45.224H146.446V47ZM162.246 47H159.774L153.702 39.8L152.094 41.624V47H150.102V30.992H152.094V39.272L159.174 30.992H161.67L154.998 38.6L162.246 47ZM170.948 47H168.956V32.768H163.892V30.992H176.036V32.768H170.948V47ZM179.164 30.992H181.156V37.352H185.596C187.132 37.352 188.348 37.816 189.244 38.744C190.156 39.672 190.612 40.816 190.612 42.176C190.612 43.536 190.164 44.68 189.268 45.608C188.372 46.536 187.148 47 185.596 47H179.164V30.992ZM185.356 39.128H181.156V45.224H185.356C186.3 45.224 187.068 44.944 187.66 44.384C188.252 43.808 188.548 43.072 188.548 42.176C188.548 41.28 188.252 40.552 187.66 39.992C187.068 39.416 186.3 39.128 185.356 39.128ZM194.332 47H192.34V30.992H194.332V47Z" fill="white"/>
<path d="M316.456 47.288C314.12 47.288 312.16 46.52 310.576 44.984C309.008 43.432 308.224 41.44 308.224 39.008C308.224 36.576 309.008 34.592 310.576 33.056C312.16 31.504 314.12 30.728 316.456 30.728C319.016 30.728 321.04 31.784 322.528 33.896L320.848 34.832C320.384 34.144 319.76 33.584 318.976 33.152C318.192 32.72 317.352 32.504 316.456 32.504C314.696 32.504 313.224 33.12 312.04 34.352C310.872 35.568 310.288 37.12 310.288 39.008C310.288 40.896 310.872 42.456 312.04 43.688C313.224 44.904 314.696 45.512 316.456 45.512C317.352 45.512 318.192 45.304 318.976 44.888C319.76 44.456 320.384 43.888 320.848 43.184L322.552 44.12C321 46.232 318.968 47.288 316.456 47.288ZM341.243 47H339.251V33.824L333.803 47H332.987L327.563 33.824V47H325.571V30.992H328.427L333.395 43.04L338.387 30.992H341.243V47ZM352.753 47.288C350.401 47.288 348.489 46.504 347.017 44.936C345.545 43.368 344.809 41.392 344.809 39.008C344.809 36.624 345.545 34.648 347.017 33.08C348.489 31.512 350.401 30.728 352.753 30.728C355.089 30.728 356.993 31.512 358.465 33.08C359.953 34.648 360.697 36.624 360.697 39.008C360.697 41.392 359.953 43.368 358.465 44.936C356.993 46.504 355.089 47.288 352.753 47.288ZM352.753 45.512C354.513 45.512 355.929 44.904 357.001 43.688C358.089 42.456 358.633 40.896 358.633 39.008C358.633 37.104 358.089 35.544 357.001 34.328C355.929 33.112 354.513 32.504 352.753 32.504C350.977 32.504 349.553 33.112 348.481 34.328C347.409 35.544 346.873 37.104 346.873 39.008C346.873 40.896 347.409 42.456 348.481 43.688C349.553 44.904 350.977 45.512 352.753 45.512ZM369.584 47H367.592V32.768H362.528V30.992H374.672V32.768H369.584V47ZM379.792 47H377.8V30.992H384.232C385.784 30.992 387.008 31.456 387.904 32.384C388.8 33.312 389.248 34.456 389.248 35.816C389.248 37.176 388.792 38.32 387.88 39.248C386.984 40.176 385.768 40.64 384.232 40.64H379.792V47ZM383.992 38.864C384.936 38.864 385.704 38.584 386.296 38.024C386.888 37.448 387.184 36.712 387.184 35.816C387.184 34.92 386.888 34.192 386.296 33.632C385.704 33.056 384.936 32.768 383.992 32.768H379.792V38.864H383.992ZM402.854 47H392.366V30.992H402.854V32.768H394.358V37.928H402.686V39.704H394.358V45.224H402.854V47ZM412.462 47H410.47V32.768H405.406V30.992H417.55V32.768H412.462V47ZM420.677 30.992H422.669V37.352H427.109C428.645 37.352 429.861 37.816 430.757 38.744C431.669 39.672 432.125 40.816 432.125 42.176C432.125 43.536 431.677 44.68 430.781 45.608C429.885 46.536 428.661 47 427.109 47H420.677V30.992ZM426.869 39.128H422.669V45.224H426.869C427.813 45.224 428.581 44.944 429.173 44.384C429.765 43.808 430.061 43.072 430.061 42.176C430.061 41.28 429.765 40.552 429.173 39.992C428.581 39.416 427.813 39.128 426.869 39.128ZM449.207 47H441.911V30.992H449.039C450.415 30.992 451.503 31.368 452.303 32.12C453.119 32.872 453.527 33.856 453.527 35.072C453.527 36.032 453.255 36.848 452.711 37.52C452.167 38.176 451.503 38.584 450.719 38.744C451.567 38.872 452.295 39.32 452.903 40.088C453.527 40.856 453.839 41.72 453.839 42.68C453.839 43.976 453.423 45.024 452.591 45.824C451.775 46.608 450.647 47 449.207 47ZM448.703 37.928C449.583 37.928 450.263 37.688 450.743 37.208C451.223 36.728 451.463 36.112 451.463 35.36C451.463 34.608 451.215 33.992 450.719 33.512C450.239 33.016 449.567 32.768 448.703 32.768H443.903V37.928H448.703ZM448.799 45.224C449.727 45.224 450.455 44.976 450.983 44.48C451.511 43.984 451.775 43.312 451.775 42.464C451.775 41.68 451.511 41.024 450.983 40.496C450.471 39.968 449.743 39.704 448.799 39.704H443.903V45.224H448.799ZM465.069 47.288C462.733 47.288 460.773 46.52 459.189 44.984C457.621 43.432 456.837 41.44 456.837 39.008C456.837 36.576 457.621 34.592 459.189 33.056C460.773 31.504 462.733 30.728 465.069 30.728C467.629 30.728 469.653 31.784 471.141 33.896L469.461 34.832C468.997 34.144 468.373 33.584 467.589 33.152C466.805 32.72 465.965 32.504 465.069 32.504C463.309 32.504 461.837 33.12 460.653 34.352C459.485 35.568 458.901 37.12 458.901 39.008C458.901 40.896 459.485 42.456 460.653 43.688C461.837 44.904 463.309 45.512 465.069 45.512C465.965 45.512 466.805 45.304 467.589 44.888C468.373 44.456 468.997 43.888 469.461 43.184L471.165 44.12C469.613 46.232 467.581 47.288 465.069 47.288ZM484.671 47H474.183V30.992H484.671V32.768H476.175V37.928H484.503V39.704H476.175V45.224H484.671V47ZM508.339 47H506.347V32.768H496.987V47H494.995V30.992H508.339V47ZM514.553 47H512.561V30.992H518.993C520.545 30.992 521.769 31.456 522.665 32.384C523.561 33.312 524.009 34.456 524.009 35.816C524.009 37.176 523.553 38.32 522.641 39.248C521.745 40.176 520.529 40.64 518.993 40.64H514.553V47ZM518.753 38.864C519.697 38.864 520.465 38.584 521.057 38.024C521.649 37.448 521.945 36.712 521.945 35.816C521.945 34.92 521.649 34.192 521.057 33.632C520.465 33.056 519.697 32.768 518.753 32.768H514.553V38.864H518.753ZM534.423 47.288C532.071 47.288 530.159 46.504 528.687 44.936C527.215 43.368 526.479 41.392 526.479 39.008C526.479 36.624 527.215 34.648 528.687 33.08C530.159 31.512 532.071 30.728 534.423 30.728C536.759 30.728 538.663 31.512 540.135 33.08C541.623 34.648 542.367 36.624 542.367 39.008C542.367 41.392 541.623 43.368 540.135 44.936C538.663 46.504 536.759 47.288 534.423 47.288ZM534.423 45.512C536.183 45.512 537.599 44.904 538.671 43.688C539.759 42.456 540.303 40.896 540.303 39.008C540.303 37.104 539.759 35.544 538.671 34.328C537.599 33.112 536.183 32.504 534.423 32.504C532.647 32.504 531.223 33.112 530.151 34.328C529.079 35.544 528.543 37.104 528.543 39.008C528.543 40.896 529.079 42.456 530.151 43.688C531.223 44.904 532.647 45.512 534.423 45.512ZM556.446 47H545.958V30.992H556.446V32.768H547.95V37.928H556.278V39.704H547.95V45.224H556.446V47ZM572.246 47H569.774L563.702 39.8L562.094 41.624V47H560.102V30.992H562.094V39.272L569.174 30.992H571.67L564.998 38.6L572.246 47ZM580.948 47H578.956V32.768H573.892V30.992H586.036V32.768H580.948V47ZM589.164 30.992H591.156V37.352H595.596C597.132 37.352 598.348 37.816 599.244 38.744C600.156 39.672 600.612 40.816 600.612 42.176C600.612 43.536 600.164 44.68 599.268 45.608C598.372 46.536 597.148 47 595.596 47H589.164V30.992ZM595.356 39.128H591.156V45.224H595.356C596.3 45.224 597.068 44.944 597.66 44.384C598.252 43.808 598.548 43.072 598.548 42.176C598.548 41.28 598.252 40.552 597.66 39.992C597.068 39.416 596.3 39.128 595.356 39.128ZM604.332 47H602.34V30.992H604.332V47Z" fill="white"/>
</svg>
