<svg width="1920" height="170" viewBox="0 0 1920 170" fill="none" xmlns="http://www.w3.org/2000/svg">
<rect width="1920" height="170" fill="#897163"/>
<path d="M826.768 86.7678C827.744 85.7915 827.744 84.2085 826.768 83.2322L810.858 67.3223C809.882 66.346 808.299 66.346 807.322 67.3223C806.346 68.2986 806.346 69.8816 807.322 70.8579L821.464 85L807.322 99.1421C806.346 100.118 806.346 101.701 807.322 102.678C808.299 103.654 809.882 103.654 810.858 102.678L826.768 86.7678ZM775 87.5H825V82.5H775V87.5Z" fill="#FCFCFC"/>
<path d="M1725.77 86.7678C1726.74 85.7915 1726.74 84.2085 1725.77 83.2322L1709.86 67.3223C1708.88 66.346 1707.3 66.346 1706.32 67.3223C1705.35 68.2986 1705.35 69.8816 1706.32 70.8579L1720.46 85L1706.32 99.1421C1705.35 100.118 1705.35 101.701 1706.32 102.678C1707.3 103.654 1708.88 103.654 1709.86 102.678L1725.77 86.7678ZM1674 87.5H1724V82.5H1674V87.5Z" fill="#FCFCFC"/>
<path d="M-0.359999 104.72C-6.2 104.72 -11.1 102.8 -15.06 98.96C-18.98 95.08 -20.94 90.1 -20.94 84.02C-20.94 77.94 -18.98 72.98 -15.06 69.14C-11.1 65.26 -6.2 63.32 -0.359999 63.32C6.04 63.32 11.1 65.96 14.82 71.24L10.62 73.58C9.46 71.86 7.9 70.46 5.94 69.38C3.98 68.3 1.88 67.76 -0.359999 67.76C-4.76 67.76 -8.44 69.3 -11.4 72.38C-14.32 75.42 -15.78 79.3 -15.78 84.02C-15.78 88.74 -14.32 92.64 -11.4 95.72C-8.44 98.76 -4.76 100.28 -0.359999 100.28C1.88 100.28 3.98 99.76 5.94 98.72C7.9 97.64 9.46 96.22 10.62 94.46L14.88 96.8C11 102.08 5.92 104.72 -0.359999 104.72ZM61.6069 104H56.6269V71.06L43.0069 104H40.9669L27.4069 71.06V104H22.4269V63.98H29.5669L41.9869 94.1L54.4669 63.98H61.6069V104ZM90.3825 104.72C84.5025 104.72 79.7225 102.76 76.0425 98.84C72.3625 94.92 70.5225 89.98 70.5225 84.02C70.5225 78.06 72.3625 73.12 76.0425 69.2C79.7225 65.28 84.5025 63.32 90.3825 63.32C96.2225 63.32 100.983 65.28 104.663 69.2C108.383 73.12 110.243 78.06 110.243 84.02C110.243 89.98 108.383 94.92 104.663 98.84C100.983 102.76 96.2225 104.72 90.3825 104.72ZM90.3825 100.28C94.7825 100.28 98.3225 98.76 101.003 95.72C103.723 92.64 105.083 88.74 105.083 84.02C105.083 79.26 103.723 75.36 101.003 72.32C98.3225 69.28 94.7825 67.76 90.3825 67.76C85.9425 67.76 82.3825 69.28 79.7025 72.32C77.0225 75.36 75.6825 79.26 75.6825 84.02C75.6825 88.74 77.0225 92.64 79.7025 95.72C82.3825 98.76 85.9425 100.28 90.3825 100.28ZM132.461 104H127.481V68.42H114.821V63.98H145.181V68.42H132.461V104ZM157.98 104H153V63.98H169.08C172.96 63.98 176.02 65.14 178.26 67.46C180.5 69.78 181.62 72.64 181.62 76.04C181.62 79.44 180.48 82.3 178.2 84.62C175.96 86.94 172.92 88.1 169.08 88.1H157.98V104ZM168.48 83.66C170.84 83.66 172.76 82.96 174.24 81.56C175.72 80.12 176.46 78.28 176.46 76.04C176.46 73.8 175.72 71.98 174.24 70.58C172.76 69.14 170.84 68.42 168.48 68.42H157.98V83.66H168.48ZM215.634 104H189.414V63.98H215.634V68.42H194.394V81.32H215.214V85.76H194.394V99.56H215.634V104ZM239.655 104H234.675V68.42H222.015V63.98H252.375V68.42H239.655V104ZM260.193 63.98H265.173V79.88H276.273C280.113 79.88 283.153 81.04 285.393 83.36C287.673 85.68 288.813 88.54 288.813 91.94C288.813 95.34 287.693 98.2 285.453 100.52C283.213 102.84 280.153 104 276.273 104H260.193V63.98ZM275.673 84.32H265.173V99.56H275.673C278.033 99.56 279.953 98.86 281.433 97.46C282.913 96.02 283.653 94.18 283.653 91.94C283.653 89.7 282.913 87.88 281.433 86.48C279.953 85.04 278.033 84.32 275.673 84.32ZM331.517 104H313.277V63.98H331.097C334.537 63.98 337.257 64.92 339.257 66.8C341.297 68.68 342.317 71.14 342.317 74.18C342.317 76.58 341.637 78.62 340.277 80.3C338.917 81.94 337.257 82.96 335.297 83.36C337.417 83.68 339.237 84.8 340.757 86.72C342.317 88.64 343.097 90.8 343.097 93.2C343.097 96.44 342.057 99.06 339.977 101.06C337.937 103.02 335.117 104 331.517 104ZM330.257 81.32C332.457 81.32 334.157 80.72 335.357 79.52C336.557 78.32 337.157 76.78 337.157 74.9C337.157 73.02 336.537 71.48 335.297 70.28C334.097 69.04 332.417 68.42 330.257 68.42H318.257V81.32H330.257ZM330.497 99.56C332.817 99.56 334.637 98.94 335.957 97.7C337.277 96.46 337.937 94.78 337.937 92.66C337.937 90.7 337.277 89.06 335.957 87.74C334.677 86.42 332.857 85.76 330.497 85.76H318.257V99.56H330.497ZM371.171 104.72C365.331 104.72 360.431 102.8 356.471 98.96C352.551 95.08 350.591 90.1 350.591 84.02C350.591 77.94 352.551 72.98 356.471 69.14C360.431 65.26 365.331 63.32 371.171 63.32C377.571 63.32 382.631 65.96 386.351 71.24L382.151 73.58C380.991 71.86 379.431 70.46 377.471 69.38C375.511 68.3 373.411 67.76 371.171 67.76C366.771 67.76 363.091 69.3 360.131 72.38C357.211 75.42 355.751 79.3 355.751 84.02C355.751 88.74 357.211 92.64 360.131 95.72C363.091 98.76 366.771 100.28 371.171 100.28C373.411 100.28 375.511 99.76 377.471 98.72C379.431 97.64 380.991 96.22 382.151 94.46L386.411 96.8C382.531 102.08 377.451 104.72 371.171 104.72ZM420.178 104H393.958V63.98H420.178V68.42H398.938V81.32H419.758V85.76H398.938V99.56H420.178V104ZM479.347 104H474.367V68.42H450.967V104H445.987V63.98H479.347V104ZM494.882 104H489.902V63.98H505.982C509.862 63.98 512.922 65.14 515.162 67.46C517.402 69.78 518.522 72.64 518.522 76.04C518.522 79.44 517.382 82.3 515.102 84.62C512.862 86.94 509.822 88.1 505.982 88.1H494.882V104ZM505.382 83.66C507.742 83.66 509.662 82.96 511.142 81.56C512.622 80.12 513.362 78.28 513.362 76.04C513.362 73.8 512.622 71.98 511.142 70.58C509.662 69.14 507.742 68.42 505.382 68.42H494.882V83.66H505.382ZM544.557 104.72C538.677 104.72 533.897 102.76 530.217 98.84C526.537 94.92 524.697 89.98 524.697 84.02C524.697 78.06 526.537 73.12 530.217 69.2C533.897 65.28 538.677 63.32 544.557 63.32C550.397 63.32 555.157 65.28 558.837 69.2C562.557 73.12 564.417 78.06 564.417 84.02C564.417 89.98 562.557 94.92 558.837 98.84C555.157 102.76 550.397 104.72 544.557 104.72ZM544.557 100.28C548.957 100.28 552.497 98.76 555.177 95.72C557.897 92.64 559.257 88.74 559.257 84.02C559.257 79.26 557.897 75.36 555.177 72.32C552.497 69.28 548.957 67.76 544.557 67.76C540.117 67.76 536.557 69.28 533.877 72.32C531.197 75.36 529.857 79.26 529.857 84.02C529.857 88.74 531.197 92.64 533.877 95.72C536.557 98.76 540.117 100.28 544.557 100.28ZM599.616 104H573.396V63.98H599.616V68.42H578.376V81.32H599.196V85.76H578.376V99.56H599.616V104ZM639.116 104H632.936L617.756 86L613.736 90.56V104H608.756V63.98H613.736V84.68L631.436 63.98H637.676L620.996 83L639.116 104ZM660.871 104H655.891V68.42H643.231V63.98H673.591V68.42H660.871V104ZM681.41 63.98H686.39V79.88H697.49C701.33 79.88 704.37 81.04 706.61 83.36C708.89 85.68 710.03 88.54 710.03 91.94C710.03 95.34 708.91 98.2 706.67 100.52C704.43 102.84 701.37 104 697.49 104H681.41V63.98ZM696.89 84.32H686.39V99.56H696.89C699.25 99.56 701.17 98.86 702.65 97.46C704.13 96.02 704.87 94.18 704.87 91.94C704.87 89.7 704.13 87.88 702.65 86.48C701.17 85.04 699.25 84.32 696.89 84.32ZM719.33 104H714.35V63.98H719.33V104Z" fill="white"/>
<path d="M898.64 104.72C892.8 104.72 887.9 102.8 883.94 98.96C880.02 95.08 878.06 90.1 878.06 84.02C878.06 77.94 880.02 72.98 883.94 69.14C887.9 65.26 892.8 63.32 898.64 63.32C905.04 63.32 910.1 65.96 913.82 71.24L909.62 73.58C908.46 71.86 906.9 70.46 904.94 69.38C902.98 68.3 900.88 67.76 898.64 67.76C894.24 67.76 890.56 69.3 887.6 72.38C884.68 75.42 883.22 79.3 883.22 84.02C883.22 88.74 884.68 92.64 887.6 95.72C890.56 98.76 894.24 100.28 898.64 100.28C900.88 100.28 902.98 99.76 904.94 98.72C906.9 97.64 908.46 96.22 909.62 94.46L913.88 96.8C910 102.08 904.92 104.72 898.64 104.72ZM960.607 104H955.627V71.06L942.007 104H939.967L926.407 71.06V104H921.427V63.98H928.567L940.987 94.1L953.467 63.98H960.607V104ZM989.383 104.72C983.503 104.72 978.723 102.76 975.043 98.84C971.363 94.92 969.523 89.98 969.523 84.02C969.523 78.06 971.363 73.12 975.043 69.2C978.723 65.28 983.503 63.32 989.383 63.32C995.223 63.32 999.983 65.28 1003.66 69.2C1007.38 73.12 1009.24 78.06 1009.24 84.02C1009.24 89.98 1007.38 94.92 1003.66 98.84C999.983 102.76 995.223 104.72 989.383 104.72ZM989.383 100.28C993.783 100.28 997.323 98.76 1000 95.72C1002.72 92.64 1004.08 88.74 1004.08 84.02C1004.08 79.26 1002.72 75.36 1000 72.32C997.323 69.28 993.783 67.76 989.383 67.76C984.943 67.76 981.383 69.28 978.703 72.32C976.023 75.36 974.683 79.26 974.683 84.02C974.683 88.74 976.023 92.64 978.703 95.72C981.383 98.76 984.943 100.28 989.383 100.28ZM1031.46 104H1026.48V68.42H1013.82V63.98H1044.18V68.42H1031.46V104ZM1056.98 104H1052V63.98H1068.08C1071.96 63.98 1075.02 65.14 1077.26 67.46C1079.5 69.78 1080.62 72.64 1080.62 76.04C1080.62 79.44 1079.48 82.3 1077.2 84.62C1074.96 86.94 1071.92 88.1 1068.08 88.1H1056.98V104ZM1067.48 83.66C1069.84 83.66 1071.76 82.96 1073.24 81.56C1074.72 80.12 1075.46 78.28 1075.46 76.04C1075.46 73.8 1074.72 71.98 1073.24 70.58C1071.76 69.14 1069.84 68.42 1067.48 68.42H1056.98V83.66H1067.48ZM1114.63 104H1088.41V63.98H1114.63V68.42H1093.39V81.32H1114.21V85.76H1093.39V99.56H1114.63V104ZM1138.65 104H1133.67V68.42H1121.01V63.98H1151.37V68.42H1138.65V104ZM1159.19 63.98H1164.17V79.88H1175.27C1179.11 79.88 1182.15 81.04 1184.39 83.36C1186.67 85.68 1187.81 88.54 1187.81 91.94C1187.81 95.34 1186.69 98.2 1184.45 100.52C1182.21 102.84 1179.15 104 1175.27 104H1159.19V63.98ZM1174.67 84.32H1164.17V99.56H1174.67C1177.03 99.56 1178.95 98.86 1180.43 97.46C1181.91 96.02 1182.65 94.18 1182.65 91.94C1182.65 89.7 1181.91 87.88 1180.43 86.48C1178.95 85.04 1177.03 84.32 1174.67 84.32ZM1230.52 104H1212.28V63.98H1230.1C1233.54 63.98 1236.26 64.92 1238.26 66.8C1240.3 68.68 1241.32 71.14 1241.32 74.18C1241.32 76.58 1240.64 78.62 1239.28 80.3C1237.92 81.94 1236.26 82.96 1234.3 83.36C1236.42 83.68 1238.24 84.8 1239.76 86.72C1241.32 88.64 1242.1 90.8 1242.1 93.2C1242.1 96.44 1241.06 99.06 1238.98 101.06C1236.94 103.02 1234.12 104 1230.52 104ZM1229.26 81.32C1231.46 81.32 1233.16 80.72 1234.36 79.52C1235.56 78.32 1236.16 76.78 1236.16 74.9C1236.16 73.02 1235.54 71.48 1234.3 70.28C1233.1 69.04 1231.42 68.42 1229.26 68.42H1217.26V81.32H1229.26ZM1229.5 99.56C1231.82 99.56 1233.64 98.94 1234.96 97.7C1236.28 96.46 1236.94 94.78 1236.94 92.66C1236.94 90.7 1236.28 89.06 1234.96 87.74C1233.68 86.42 1231.86 85.76 1229.5 85.76H1217.26V99.56H1229.5ZM1270.17 104.72C1264.33 104.72 1259.43 102.8 1255.47 98.96C1251.55 95.08 1249.59 90.1 1249.59 84.02C1249.59 77.94 1251.55 72.98 1255.47 69.14C1259.43 65.26 1264.33 63.32 1270.17 63.32C1276.57 63.32 1281.63 65.96 1285.35 71.24L1281.15 73.58C1279.99 71.86 1278.43 70.46 1276.47 69.38C1274.51 68.3 1272.41 67.76 1270.17 67.76C1265.77 67.76 1262.09 69.3 1259.13 72.38C1256.21 75.42 1254.75 79.3 1254.75 84.02C1254.75 88.74 1256.21 92.64 1259.13 95.72C1262.09 98.76 1265.77 100.28 1270.17 100.28C1272.41 100.28 1274.51 99.76 1276.47 98.72C1278.43 97.64 1279.99 96.22 1281.15 94.46L1285.41 96.8C1281.53 102.08 1276.45 104.72 1270.17 104.72ZM1319.18 104H1292.96V63.98H1319.18V68.42H1297.94V81.32H1318.76V85.76H1297.94V99.56H1319.18V104ZM1378.35 104H1373.37V68.42H1349.97V104H1344.99V63.98H1378.35V104ZM1393.88 104H1388.9V63.98H1404.98C1408.86 63.98 1411.92 65.14 1414.16 67.46C1416.4 69.78 1417.52 72.64 1417.52 76.04C1417.52 79.44 1416.38 82.3 1414.1 84.62C1411.86 86.94 1408.82 88.1 1404.98 88.1H1393.88V104ZM1404.38 83.66C1406.74 83.66 1408.66 82.96 1410.14 81.56C1411.62 80.12 1412.36 78.28 1412.36 76.04C1412.36 73.8 1411.62 71.98 1410.14 70.58C1408.66 69.14 1406.74 68.42 1404.38 68.42H1393.88V83.66H1404.38ZM1443.56 104.72C1437.68 104.72 1432.9 102.76 1429.22 98.84C1425.54 94.92 1423.7 89.98 1423.7 84.02C1423.7 78.06 1425.54 73.12 1429.22 69.2C1432.9 65.28 1437.68 63.32 1443.56 63.32C1449.4 63.32 1454.16 65.28 1457.84 69.2C1461.56 73.12 1463.42 78.06 1463.42 84.02C1463.42 89.98 1461.56 94.92 1457.84 98.84C1454.16 102.76 1449.4 104.72 1443.56 104.72ZM1443.56 100.28C1447.96 100.28 1451.5 98.76 1454.18 95.72C1456.9 92.64 1458.26 88.74 1458.26 84.02C1458.26 79.26 1456.9 75.36 1454.18 72.32C1451.5 69.28 1447.96 67.76 1443.56 67.76C1439.12 67.76 1435.56 69.28 1432.88 72.32C1430.2 75.36 1428.86 79.26 1428.86 84.02C1428.86 88.74 1430.2 92.64 1432.88 95.72C1435.56 98.76 1439.12 100.28 1443.56 100.28ZM1498.62 104H1472.4V63.98H1498.62V68.42H1477.38V81.32H1498.2V85.76H1477.38V99.56H1498.62V104ZM1538.12 104H1531.94L1516.76 86L1512.74 90.56V104H1507.76V63.98H1512.74V84.68L1530.44 63.98H1536.68L1520 83L1538.12 104ZM1559.87 104H1554.89V68.42H1542.23V63.98H1572.59V68.42H1559.87V104ZM1580.41 63.98H1585.39V79.88H1596.49C1600.33 79.88 1603.37 81.04 1605.61 83.36C1607.89 85.68 1609.03 88.54 1609.03 91.94C1609.03 95.34 1607.91 98.2 1605.67 100.52C1603.43 102.84 1600.37 104 1596.49 104H1580.41V63.98ZM1595.89 84.32H1585.39V99.56H1595.89C1598.25 99.56 1600.17 98.86 1601.65 97.46C1603.13 96.02 1603.87 94.18 1603.87 91.94C1603.87 89.7 1603.13 87.88 1601.65 86.48C1600.17 85.04 1598.25 84.32 1595.89 84.32ZM1618.33 104H1613.35V63.98H1618.33V104Z" fill="white"/>
<path d="M1797.64 104.72C1791.8 104.72 1786.9 102.8 1782.94 98.96C1779.02 95.08 1777.06 90.1 1777.06 84.02C1777.06 77.94 1779.02 72.98 1782.94 69.14C1786.9 65.26 1791.8 63.32 1797.64 63.32C1804.04 63.32 1809.1 65.96 1812.82 71.24L1808.62 73.58C1807.46 71.86 1805.9 70.46 1803.94 69.38C1801.98 68.3 1799.88 67.76 1797.64 67.76C1793.24 67.76 1789.56 69.3 1786.6 72.38C1783.68 75.42 1782.22 79.3 1782.22 84.02C1782.22 88.74 1783.68 92.64 1786.6 95.72C1789.56 98.76 1793.24 100.28 1797.64 100.28C1799.88 100.28 1801.98 99.76 1803.94 98.72C1805.9 97.64 1807.46 96.22 1808.62 94.46L1812.88 96.8C1809 102.08 1803.92 104.72 1797.64 104.72ZM1859.61 104H1854.63V71.06L1841.01 104H1838.97L1825.41 71.06V104H1820.43V63.98H1827.57L1839.99 94.1L1852.47 63.98H1859.61V104ZM1888.38 104.72C1882.5 104.72 1877.72 102.76 1874.04 98.84C1870.36 94.92 1868.52 89.98 1868.52 84.02C1868.52 78.06 1870.36 73.12 1874.04 69.2C1877.72 65.28 1882.5 63.32 1888.38 63.32C1894.22 63.32 1898.98 65.28 1902.66 69.2C1906.38 73.12 1908.24 78.06 1908.24 84.02C1908.24 89.98 1906.38 94.92 1902.66 98.84C1898.98 102.76 1894.22 104.72 1888.38 104.72ZM1888.38 100.28C1892.78 100.28 1896.32 98.76 1899 95.72C1901.72 92.64 1903.08 88.74 1903.08 84.02C1903.08 79.26 1901.72 75.36 1899 72.32C1896.32 69.28 1892.78 67.76 1888.38 67.76C1883.94 67.76 1880.38 69.28 1877.7 72.32C1875.02 75.36 1873.68 79.26 1873.68 84.02C1873.68 88.74 1875.02 92.64 1877.7 95.72C1880.38 98.76 1883.94 100.28 1888.38 100.28ZM1930.46 104H1925.48V68.42H1912.82V63.98H1943.18V68.42H1930.46V104ZM1955.98 104H1951V63.98H1967.08C1970.96 63.98 1974.02 65.14 1976.26 67.46C1978.5 69.78 1979.62 72.64 1979.62 76.04C1979.62 79.44 1978.48 82.3 1976.2 84.62C1973.96 86.94 1970.92 88.1 1967.08 88.1H1955.98V104ZM1966.48 83.66C1968.84 83.66 1970.76 82.96 1972.24 81.56C1973.72 80.12 1974.46 78.28 1974.46 76.04C1974.46 73.8 1973.72 71.98 1972.24 70.58C1970.76 69.14 1968.84 68.42 1966.48 68.42H1955.98V83.66H1966.48ZM2013.63 104H1987.41V63.98H2013.63V68.42H1992.39V81.32H2013.21V85.76H1992.39V99.56H2013.63V104ZM2037.65 104H2032.67V68.42H2020.01V63.98H2050.37V68.42H2037.65V104ZM2058.19 63.98H2063.17V79.88H2074.27C2078.11 79.88 2081.15 81.04 2083.39 83.36C2085.67 85.68 2086.81 88.54 2086.81 91.94C2086.81 95.34 2085.69 98.2 2083.45 100.52C2081.21 102.84 2078.15 104 2074.27 104H2058.19V63.98ZM2073.67 84.32H2063.17V99.56H2073.67C2076.03 99.56 2077.95 98.86 2079.43 97.46C2080.91 96.02 2081.65 94.18 2081.65 91.94C2081.65 89.7 2080.91 87.88 2079.43 86.48C2077.95 85.04 2076.03 84.32 2073.67 84.32ZM2129.52 104H2111.28V63.98H2129.1C2132.54 63.98 2135.26 64.92 2137.26 66.8C2139.3 68.68 2140.32 71.14 2140.32 74.18C2140.32 76.58 2139.64 78.62 2138.28 80.3C2136.92 81.94 2135.26 82.96 2133.3 83.36C2135.42 83.68 2137.24 84.8 2138.76 86.72C2140.32 88.64 2141.1 90.8 2141.1 93.2C2141.1 96.44 2140.06 99.06 2137.98 101.06C2135.94 103.02 2133.12 104 2129.52 104ZM2128.26 81.32C2130.46 81.32 2132.16 80.72 2133.36 79.52C2134.56 78.32 2135.16 76.78 2135.16 74.9C2135.16 73.02 2134.54 71.48 2133.3 70.28C2132.1 69.04 2130.42 68.42 2128.26 68.42H2116.26V81.32H2128.26ZM2128.5 99.56C2130.82 99.56 2132.64 98.94 2133.96 97.7C2135.28 96.46 2135.94 94.78 2135.94 92.66C2135.94 90.7 2135.28 89.06 2133.96 87.74C2132.68 86.42 2130.86 85.76 2128.5 85.76H2116.26V99.56H2128.5ZM2169.17 104.72C2163.33 104.72 2158.43 102.8 2154.47 98.96C2150.55 95.08 2148.59 90.1 2148.59 84.02C2148.59 77.94 2150.55 72.98 2154.47 69.14C2158.43 65.26 2163.33 63.32 2169.17 63.32C2175.57 63.32 2180.63 65.96 2184.35 71.24L2180.15 73.58C2178.99 71.86 2177.43 70.46 2175.47 69.38C2173.51 68.3 2171.41 67.76 2169.17 67.76C2164.77 67.76 2161.09 69.3 2158.13 72.38C2155.21 75.42 2153.75 79.3 2153.75 84.02C2153.75 88.74 2155.21 92.64 2158.13 95.72C2161.09 98.76 2164.77 100.28 2169.17 100.28C2171.41 100.28 2173.51 99.76 2175.47 98.72C2177.43 97.64 2178.99 96.22 2180.15 94.46L2184.41 96.8C2180.53 102.08 2175.45 104.72 2169.17 104.72ZM2218.18 104H2191.96V63.98H2218.18V68.42H2196.94V81.32H2217.76V85.76H2196.94V99.56H2218.18V104ZM2277.35 104H2272.37V68.42H2248.97V104H2243.99V63.98H2277.35V104ZM2292.88 104H2287.9V63.98H2303.98C2307.86 63.98 2310.92 65.14 2313.16 67.46C2315.4 69.78 2316.52 72.64 2316.52 76.04C2316.52 79.44 2315.38 82.3 2313.1 84.62C2310.86 86.94 2307.82 88.1 2303.98 88.1H2292.88V104ZM2303.38 83.66C2305.74 83.66 2307.66 82.96 2309.14 81.56C2310.62 80.12 2311.36 78.28 2311.36 76.04C2311.36 73.8 2310.62 71.98 2309.14 70.58C2307.66 69.14 2305.74 68.42 2303.38 68.42H2292.88V83.66H2303.38ZM2342.56 104.72C2336.68 104.72 2331.9 102.76 2328.22 98.84C2324.54 94.92 2322.7 89.98 2322.7 84.02C2322.7 78.06 2324.54 73.12 2328.22 69.2C2331.9 65.28 2336.68 63.32 2342.56 63.32C2348.4 63.32 2353.16 65.28 2356.84 69.2C2360.56 73.12 2362.42 78.06 2362.42 84.02C2362.42 89.98 2360.56 94.92 2356.84 98.84C2353.16 102.76 2348.4 104.72 2342.56 104.72ZM2342.56 100.28C2346.96 100.28 2350.5 98.76 2353.18 95.72C2355.9 92.64 2357.26 88.74 2357.26 84.02C2357.26 79.26 2355.9 75.36 2353.18 72.32C2350.5 69.28 2346.96 67.76 2342.56 67.76C2338.12 67.76 2334.56 69.28 2331.88 72.32C2329.2 75.36 2327.86 79.26 2327.86 84.02C2327.86 88.74 2329.2 92.64 2331.88 95.72C2334.56 98.76 2338.12 100.28 2342.56 100.28ZM2397.62 104H2371.4V63.98H2397.62V68.42H2376.38V81.32H2397.2V85.76H2376.38V99.56H2397.62V104ZM2437.12 104H2430.94L2415.76 86L2411.74 90.56V104H2406.76V63.98H2411.74V84.68L2429.44 63.98H2435.68L2419 83L2437.12 104ZM2458.87 104H2453.89V68.42H2441.23V63.98H2471.59V68.42H2458.87V104ZM2479.41 63.98H2484.39V79.88H2495.49C2499.33 79.88 2502.37 81.04 2504.61 83.36C2506.89 85.68 2508.03 88.54 2508.03 91.94C2508.03 95.34 2506.91 98.2 2504.67 100.52C2502.43 102.84 2499.37 104 2495.49 104H2479.41V63.98ZM2494.89 84.32H2484.39V99.56H2494.89C2497.25 99.56 2499.17 98.86 2500.65 97.46C2502.13 96.02 2502.87 94.18 2502.87 91.94C2502.87 89.7 2502.13 87.88 2500.65 86.48C2499.17 85.04 2497.25 84.32 2494.89 84.32ZM2517.33 104H2512.35V63.98H2517.33V104Z" fill="white"/>
</svg>
